<?xml version="1.0" encoding="utf-8"?>
<!-- Generator: Adobe Illustrator 25.2.3, SVG Export Plug-In . SVG Version: 6.00 Build 0)  -->
<svg version="1.1" id="Layer_1" xmlns="http://www.w3.org/2000/svg" xmlns:xlink="http://www.w3.org/1999/xlink" x="0px" y="0px"
	 viewBox="0 0 20 20" style="enable-background:new 0 0 20 20;" xml:space="preserve">
<style type="text/css">
	.st0{fill:#9A55FF;}
	.st1{fill:#FFFFFF;}
</style>
<g>
	<rect class="st0" width="20" height="20"/>
	<path class="st1" d="M16.8,16.2L11.2,2.1h-4l0.7,1.8L3.1,16.2C2.9,16.9,2.4,17,1.8,17v0.8h4.6V17l0,0l0,0l0,0l0,0
		c-1.2-0.1-2-0.3-1.4-1.6c0.1-0.1,0.4-1.1,0.9-2.3h5.7l0.8,2.1c0.1,0.4,0.2,0.6,0.2,0.9c0,0.7-0.6,1-1.8,1v0.8h7.3V17
		C17.5,17,17,16.8,16.8,16.2z M6.1,11.8c1-2.5,2.1-5.4,2.5-6.5l2.6,6.5H6.1z"/>
</g>
</svg>
