<?xml version="1.0" encoding="utf-8"?>
<!-- Generator: Adobe Illustrator 25.2.3, SVG Export Plug-In . SVG Version: 6.00 Build 0)  -->
<svg version="1.1" id="Layer_1" xmlns="http://www.w3.org/2000/svg" xmlns:xlink="http://www.w3.org/1999/xlink" x="0px" y="0px"
	 viewBox="0 0 148.3 18" style="enable-background:new 0 0 148.3 18;" xml:space="preserve">
<style type="text/css">
	.st0{fill:#9A55FF;}
	.st1{fill:#FFFFFF;}
</style>
<g>
	<path class="st0" d="M31.4,16.8c-3.2,0-5-3.5-5-8.1c0-4.2,1.4-7.6,4.7-7.6c2.4,0,3.8,1.6,4.4,4.5h1.1V1.4C35.2,0.5,33.3,0,31.1,0
		c-5,0-9.1,3.7-9.1,9.4c0,5.2,3.5,8.6,9,8.6c2.4,0,4.5-0.6,5.9-1.6l0.4-4.8h-1.1C35.3,15.3,33.6,16.8,31.4,16.8z"/>
	<path class="st0" d="M55.8,15.9L49.5,0.1H45l0.8,2l-5.3,13.8c-0.2,0.7-0.8,0.8-1.4,0.9v0.9h5.2v-0.9l0,0l0,0l0,0l0,0
		c-1.4-0.1-2.2-0.3-1.6-1.8c0.1-0.1,0.5-1.2,1-2.6h6.4l0.9,2.3c0.1,0.4,0.2,0.7,0.2,1c0,0.8-0.7,1.1-2,1.1v0.9h8.2v-0.9
		C56.5,16.7,56,16.5,55.8,15.9z M44.2,10.7c1-2.5,2.1-5.4,2.5-6.5l2.6,6.5H44.2z"/>
	<path class="st0" d="M67,0.2h-7.9v0.9C60.8,1.3,61,1.5,61,2.8V15c0,1.3-0.2,1.5-1.9,1.7v0.9h8.4c5.5,0,9.3-3.3,9.3-9
		C76.9,4,73.7,0.2,67,0.2z M67.4,16.7h-0.3c-1.2,0-1.8-0.3-1.8-1.8V1.3h1c4.1,0,6.2,3.3,6.2,7.9C72.4,13.8,70.4,16.7,67.4,16.7z"/>
	<path class="st0" d="M88.1,16.7h-1.2c-1.5,0-2.1-0.4-2.1-1.7V9.3h2.8c1.1,0,1.5,0.6,1.7,2.3h1V5.8h-1c-0.2,1.6-0.6,2.3-1.7,2.3
		h-2.8V1.3h3.1c2.1,0,2.8,0.8,4.1,3.6h0.8l-0.1-4.7h-14v0.9c1.7,0.2,1.9,0.4,1.9,1.7V15c0,1.3-0.2,1.5-1.9,1.7v0.9h14.2l0.8-5.2h-1
		C90.9,15.6,90.2,16.7,88.1,16.7z"/>
	<path class="st0" d="M116.3,15.3L114.8,3c0-1.3,0.5-1.7,2.1-1.8v-1h-6.1c0,0.3-0.1,0.5-0.1,0.7l-0.3,0.8L106.8,12L103,1.8
		c-0.2-0.5-0.4-1-0.4-1.5h-6.3v0.9c1.6,0.1,2.1,0.5,2.1,1.8l-1.6,12.3c-0.1,1.1-0.6,1.4-2.1,1.5v0.9h5.9v-0.9c-0.4,0-0.7-0.1-1-0.1
		c-0.6-0.2-1.3-0.8-1.1-2.3c0.2-1.9,0.9-7.2,1.2-9.3l4.7,12.7h2l4.3-12.5l1.2,9.3c0,0.1,0,0.2,0,0.3v0.3c0,1.2-0.6,1.5-2.4,1.6v0.9
		h8.8v-0.9C117,16.7,116.5,16.5,116.3,15.3z"/>
	<path class="st0" d="M120.4,1.2c1.7,0.2,1.9,0.4,1.9,1.7v12.2c0,1.3-0.2,1.5-1.9,1.7v0.9h8.1v-0.9c-1.7-0.2-1.9-0.4-1.9-1.7V2.9
		c0-1.3,0.2-1.5,1.9-1.7v-1h-8.1V1.2z"/>
	<g>
		<rect class="st0" width="19.4" height="18"/>
		<path class="st1" d="M16.5,15.2L10.9,1.1h-4l0.7,1.8L2.8,15.2C2.6,15.9,2.1,16,1.5,16v0.8h4.6V16l0,0l0,0l0,0l0,0
			c-1.2-0.1-2-0.3-1.4-1.6c0.1-0.1,0.4-1.1,0.9-2.3h5.7l0.8,2.1c0.1,0.4,0.2,0.6,0.2,0.9c0,0.7-0.6,1-1.8,1v0.8h7.3V16
			C17.2,16,16.7,15.8,16.5,15.2z M5.7,10.8c1-2.5,2.1-5.4,2.5-6.5l2.6,6.5H5.7z"/>
	</g>
	<path class="st0" d="M147.3,16.5c-0.3-0.1-0.4-0.3-0.6-0.6l-6.3-15.7h-4.5l0,0l0.8,2L131.4,16c-0.2,0.7-0.8,0.8-1.4,0.9v0.9h5.2
		l0,0v-0.9l0,0l0,0l0,0l0,0c-1.4-0.1-2.2-0.3-1.6-1.8c0.1-0.1,0.5-1.2,1-2.6h6.4l0.9,2.3c0.1,0.4,0.2,0.7,0.2,1c0,0.8-0.7,1.1-2,1.1
		v0.9h8.2v-0.9C147.8,16.7,147.5,16.7,147.3,16.5z M135.2,10.7c1-2.5,2.1-5.4,2.5-6.5l2.6,6.5H135.2z"/>
</g>
</svg>
