<svg id="Layer_1" data-name="Layer 1" xmlns="http://www.w3.org/2000/svg" viewBox="0 0 148.34 18"><path d="M31.44,16.8c-3.2,0-5-3.5-5-8.1,0-4.2,1.4-7.6,4.7-7.6,2.4,0,3.8,1.6,4.4,4.5h1.1V1.4A10.19,10.19,0,0,0,31.14,0c-5,0-9.1,3.7-9.1,9.4,0,5.2,3.5,8.6,9,8.6a10.31,10.31,0,0,0,5.9-1.6l.4-4.8h-1.1C35.34,15.3,33.64,16.8,31.44,16.8Z" style="fill:#9a55ff"/><path d="M55.84,15.9,49.54.1H45l.8,2-5.3,13.8c-.2.7-.8.8-1.4.9v.9h5.2v-.9h0c-1.4-.1-2.2-.3-1.6-1.8a24,24,0,0,0,1-2.6h6.4l.9,2.3a4.4,4.4,0,0,1,.2,1c0,.8-.7,1.1-2,1.1v.9h8.2v-.9C56.54,16.7,56,16.5,55.84,15.9Zm-11.6-5.2c1-2.5,2.1-5.4,2.5-6.5l2.6,6.5Z" style="fill:#9a55ff"/><path d="M67,.2h-7.9v.9c1.7.2,1.9.4,1.9,1.7V15c0,1.3-.2,1.5-1.9,1.7v.9h8.4c5.5,0,9.3-3.3,9.3-9C76.94,4,73.74.2,67,.2Zm.4,16.5h-.3c-1.2,0-1.8-.3-1.8-1.8V1.3h1c4.1,0,6.2,3.3,6.2,7.9S70.44,16.7,67.44,16.7Z" style="fill:#9a55ff"/><path d="M88.14,16.7h-1.2c-1.5,0-2.1-.4-2.1-1.7V9.3h2.8c1.1,0,1.5.6,1.7,2.3h1V5.8h-1c-.2,1.6-.6,2.3-1.7,2.3h-2.8V1.3h3.1c2.1,0,2.8.8,4.1,3.6h.8L92.74.2h-14v.9c1.7.2,1.9.4,1.9,1.7V15c0,1.3-.2,1.5-1.9,1.7v.9h14.2l.8-5.2h-1C90.94,15.6,90.24,16.7,88.14,16.7Z" style="fill:#9a55ff"/><path d="M116.34,15.3,114.84,3c0-1.3.5-1.7,2.1-1.8V.2h-6.1c0,.3-.1.5-.1.7l-.3.8L106.84,12,103,1.8a4.19,4.19,0,0,1-.4-1.5h-6.3v.9c1.6.1,2.1.5,2.1,1.8l-1.6,12.3c-.1,1.1-.6,1.4-2.1,1.5v.9h5.9v-.9c-.4,0-.7-.1-1-.1-.6-.2-1.3-.8-1.1-2.3.2-1.9.9-7.2,1.2-9.3l4.7,12.7h2l4.3-12.5,1.2,9.3v.6c0,1.2-.6,1.5-2.4,1.6v.9h8.8v-.9C117,16.7,116.54,16.5,116.34,15.3Z" style="fill:#9a55ff"/><path d="M120.44,1.2c1.7.2,1.9.4,1.9,1.7V15.1c0,1.3-.2,1.5-1.9,1.7v.9h8.1v-.9c-1.7-.2-1.9-.4-1.9-1.7V2.9c0-1.3.2-1.5,1.9-1.7V.2h-8.1Z" style="fill:#9a55ff"/><rect width="19.36" height="18" style="fill:#9a55ff"/><path d="M16.5,15.25,10.88,1.15h-4l.71,1.78L2.76,15.25c-.17.62-.71.71-1.25.8v.8H6.15v-.8h0c-1.24-.09-2-.27-1.42-1.61a22.48,22.48,0,0,0,.89-2.32h5.71l.8,2.05a4,4,0,0,1,.18.9c0,.71-.62,1-1.78,1v.8h7.31v-.8C17.22,16,16.68,15.78,16.5,15.25ZM5.73,10.8c1-2.5,2.1-5.4,2.5-6.5l2.6,6.5Z" style="fill:#fff"/><path d="M147.34,16.5c-.3-.1-.4-.3-.6-.6L140.44.2h-4.5l.8,2L131.44,16c-.2.7-.8.8-1.4.9v.9h5.2v-.9h0c-1.4-.1-2.2-.3-1.6-1.8a24,24,0,0,0,1-2.6H141l.9,2.3a4.4,4.4,0,0,1,.2,1c0,.8-.7,1.1-2,1.1v.9h8.2v-.9C147.84,16.7,147.54,16.7,147.34,16.5Zm-12.1-5.8c1-2.5,2.1-5.4,2.5-6.5l2.6,6.5Z" style="fill:#9a55ff"/></svg>